<svg id="back" xmlns="http://www.w3.org/2000/svg" width="18.598" height="18.133" viewBox="0 0 18.598 18.133">
  <g id="Group_54" data-name="Group 54">
    <path id="Path_17" data-name="Path 17" d="M18.287,15.037a8.225,8.225,0,0,0-7.97-5.472V5.808a.334.334,0,0,0-.326-.326.35.35,0,0,0-.2.065L.133,12.54A.317.317,0,0,0,.068,13l.065.065L9.8,20.01a.337.337,0,0,0,.456-.065.35.35,0,0,0,.065-.2V16.014c2.345,0,4.321,1.108,5.016,2.78a3.751,3.751,0,0,1-1.281,4.256.316.316,0,0,0-.022.456.349.349,0,0,0,.239.109h.261a.247.247,0,0,0,.174-.065C17.9,21.443,19.265,18.164,18.287,15.037Z" transform="translate(0 -5.482)" fill="#fff"/>
  </g>
</svg>
